Coordinates
version=1
nRows=21
nColumns=22
inDegrees=yes

Units are S.I. units (second, meters, Newtons, ...)
If the header above contains a line with 'inDegrees', this indicates whether rotational values are in degrees (yes) or radians (no).

endheader
time	pelvis_tilt	pelvis_list	pelvis_rotation	pelvis_tx	pelvis_ty	pelvis_tz	hip_flexion_r	hip_adduction_r	hip_rotation_r	knee_angle_r	ankle_angle_r	subtalar_angle_r	hip_flexion_l	hip_adduction_l	hip_rotation_l	knee_angle_l	ankle_angle_l	subtalar_angle_l	lumbar_extension	lumbar_bending	lumbar_rotation
      3.92000000	      3.35993415	      1.93235304	    -91.24882994	      0.69786061	      0.92086598	      0.67595120	     10.39783573	    -10.27877498	     -3.92093973	    -61.79187943	    -10.26723361	     -3.92159312	     19.12357181	      4.18576029	     -3.54772606	    -26.50167309	      7.06051469	     -2.14011074	     -3.49160842	     -8.04712067	      2.66867893
      3.93000000	      3.42729781	      1.86661800	    -91.53289200	      0.69986926	      0.92134247	      0.67989960	     11.72112746	    -10.47187782	     -4.23385510	    -63.00481122	     -9.09270644	     -3.90086442	     18.73815738	      4.36839452	     -3.79362983	    -26.43294362	      7.24714791	     -2.38559220	     -3.81874249	     -8.07717066	      2.06275957
      3.94000000	      3.42244968	      1.82359638	    -91.79281533	      0.70168499	      0.92183279	      0.68363728	     13.01979037	    -10.46921731	     -4.46078768	    -64.00715702	     -7.83642990	     -3.79577174	     18.39547210	      4.46795107	     -3.98811380	    -26.37178449	      7.42284536	     -2.57488233	     -4.11750786	     -8.04356489	      1.45068871
      3.95000000	      3.36111706	      1.81315194	    -92.03019276	      0.70331805	      0.92229200	      0.68711243	     14.31366816	    -10.30164172	     -4.62264767	    -64.81549092	     -6.58119490	     -3.60049922	     18.12739161	      4.49283434	     -4.16452879	    -26.35287023	      7.59278368	     -2.74035468	     -4.38613053	     -7.96710013	      0.85324873
      3.96000000	      3.25578447	      1.83209133	    -92.25056976	      0.70477114	      0.92273886	      0.69037369	     15.58406857	     -9.99026873	     -4.72893017	    -65.41757297	     -5.34766644	     -3.31111151	     17.90493536	      4.45906971	     -4.31255711	    -26.33533034	      7.74604963	     -2.86543714	     -4.61950594	     -7.86029352	      0.27653164
      3.97000000	      3.12378228	      1.88225301	    -92.45193843	      0.70606632	      0.92313908	      0.69343541	     16.82938584	     -9.57898716	     -4.80880857	    -65.82503230	     -4.16852981	     -2.91235989	     17.74365800	      4.38001435	     -4.46324987	    -26.34675580	      7.89364673	     -2.97335183	     -4.81211419	     -7.74133982	     -0.28518432
      3.98000000	      2.98004830	      1.94313748	    -92.62984031	      0.70724730	      0.92352424	      0.69632360	     18.01557498	     -9.10433746	     -4.87709312	    -66.03416568	     -3.04345796	     -2.43520756	     17.60165048	      4.27838361	     -4.60837497	    -26.35253075	      8.02792951	     -3.05312278	     -4.98922403	     -7.62383333	     -0.83459427
      3.99000000	      2.83927677	      2.00604111	    -92.78369453	      0.70833733	      0.92390405	      0.69908357	     19.12462954	     -8.60754257	     -4.95216893	    -66.04904941	     -1.96803619	     -1.91018602	     17.45954408	      4.17221647	     -4.74982716	    -26.33819723	      8.14430366	     -3.11141149	     -5.15405216	     -7.52357167	     -1.37692256
      4.00000000	      2.71465346	      2.06750125	    -92.90680869	      0.70939614	      0.92426584	      0.70172235	     20.14853771	     -8.12612284	     -5.04848537	    -65.88025670	     -0.92721757	     -1.35076889	     17.31315187	      4.08364954	     -4.88171834	    -26.30077089	      8.25074112	     -3.15630376	     -5.31341625	     -7.44693799	     -1.91204480
      4.01000000	      2.61261605	      2.11466261	    -93.00188733	      0.71043043	      0.92463998	      0.70430799	     21.06308595	     -7.68854040	     -5.18205472	    -65.52769386	      0.08240302	     -0.79491810	     17.12920692	      4.02044548	     -5.01161954	    -26.21253264	      8.32458687	     -3.19617273	     -5.46985384	     -7.40207647	     -2.44600111
      4.02000000	      2.53846371	      2.14363766	    -93.06312512	      0.71148473	      0.92501012	      0.70684087	     21.86575784	     -7.32260757	     -5.36631209	    -65.01044308	      1.08111860	     -0.26918793	     16.90998701	      3.99431845	     -5.12725524	    -26.08480711	      8.39103747	     -3.23428100	     -5.63297645	     -7.39162885	     -2.97437389
      4.03000000	      2.49583510	      2.15051075	    -93.09451183	      0.71258614	      0.92538781	      0.70932405	     22.55362365	     -7.03586693	     -5.58671701	    -64.33519184	      2.04873934	      0.22446721	     16.64869674	      4.01381503	     -5.22563212	    -25.91211783	      8.44237227	     -3.28062970	     -5.80861224	     -7.41273668	     -3.50645532
      4.04000000	      2.47984421	      2.13492670	    -93.09976431	      0.71373463	      0.92576337	      0.71178182	     23.12763262	     -6.83435536	     -5.85699764	    -63.51879379	      3.00236293	      0.64448163	     16.34192425	      4.07275116	     -5.31119382	    -25.69344697	      8.48225226	     -3.33698202	     -5.99437252	     -7.45911216	     -4.02946967
      4.05000000	      2.48887148	      2.10218872	    -93.08090726	      0.71493100	      0.92613579	      0.71423093	     23.59137436	     -6.71733994	     -6.17465945	    -62.56654964	      3.93169461	      0.98876489	     15.99565814	      4.17087364	     -5.37801291	    -25.43168127	      8.52120130	     -3.40457421	     -6.18168656	     -7.52939560	     -4.54089111
      4.06000000	      2.51727277	      2.04280270	    -93.04301942	      0.71618952	      0.92652306	      0.71667288	     23.93782085	     -6.67689607	     -6.52759954	    -61.48778725	      4.82017721	      1.28318293	     15.59704678	      4.30460500	     -5.42310960	    -25.12323424	      8.55604366	     -3.49732079	     -6.38456789	     -7.61059377	     -5.03532639
      4.07000000	      2.55747864	      1.96493079	    -92.99736105	      0.71746955	      0.92691792	      0.71912195	     24.17773539	     -6.69431613	     -6.90687849	    -60.29313942	      5.66705963	      1.50032843	     15.15635933	      4.45982665	     -5.45403770	    -24.77446530	      8.58900639	     -3.61323465	     -6.58988256	     -7.70015448	     -5.49975954
      4.08000000	      2.60602316	      1.87352431	    -92.94630324	      0.71877583	      0.92731499	      0.72157713	     24.31967587	     -6.76132306	     -7.30696872	    -58.99222613	      6.46887782	      1.63877941	     14.68059741	      4.63353157	     -5.47062524	    -24.38893905	      8.62583730	     -3.74653129	     -6.79393524	     -7.79030195	     -5.93088355
      4.09000000	      2.65896951	      1.77681542	    -92.89445109	      0.72010027	      0.92769705	      0.72404338	     24.37627271	     -6.87095905	     -7.73083673	    -57.59859144	      7.23906229	      1.71207907	     14.18789711	      4.81724061	     -5.48419727	    -23.98529413	      8.66993997	     -3.88668814	     -6.98493966	     -7.87555644	     -6.31360607
      4.10000000	      2.70092170	      1.66007147	    -92.86146620	      0.72136011	      0.92812899	      0.72651812	     24.32986108	     -6.96610348	     -8.11602574	    -56.10241494	      7.94378520	      1.71753247	     13.64317215	      4.99095476	     -5.48801801	    -23.52891714	      8.70607345	     -4.05966149	     -7.18249825	     -7.94860861	     -6.65936119
      4.11000000	      2.74304807	      1.56040651	    -92.82915691	      0.72264549	      0.92850206	      0.72901737	     24.22968844	     -7.09829939	     -8.53758664	    -54.54215528	      8.64734315	      1.69395885	     13.12251561	      5.16443918	     -5.50969815	    -23.08804206	      8.75803265	     -4.21035725	     -7.33814500	     -8.00815192	     -6.93999042
      4.12000000	      2.76428737	      1.43062440	    -92.82130746	      0.72382595	      0.92897280	      0.73153790	     24.01469448	     -7.18675710	     -8.90271338	    -52.88639886	      9.25245869	      1.59721942	     12.52893294	      5.31502876	     -5.51890426	    -22.57547446	      8.79861923	     -4.39265002	     -7.51329295	     -8.04825431	     -7.17316275
